<svg width="28" height="28" viewBox="0 0 28 28" fill="none" xmlns="http://www.w3.org/2000/svg">
<path d="M8.57968 12.9582V11.0857C8.57968 10.9748 8.57968 10.9305 8.72435 10.9305C9.96451 10.9305 10.9725 10.857 11.473 11.1522C11.9747 11.4462 11.9957 11.8522 12.0038 11.9735C12.0132 12.0948 12.0085 12.2687 11.7752 12.6922C11.5418 13.1157 10.4977 13.1238 9.74401 13.1238H8.74651C8.62401 13.1238 8.57968 13.0795 8.57968 12.9582ZM12.0167 14.9205C12.132 15.0681 12.2144 15.2387 12.2581 15.4208C12.3018 15.603 12.3058 15.7924 12.27 15.9762C12.2342 16.1601 12.1592 16.3341 12.0503 16.4865C11.9414 16.6388 11.801 16.7661 11.6387 16.8595C11.3999 16.9596 11.1439 17.0123 10.885 17.0147H8.73485C8.62401 17.0147 8.57968 17.0147 8.57968 16.8712V14.6545C8.57968 14.5437 8.57968 14.4993 8.72435 14.4993H10.1535C11.0402 14.4993 11.5943 14.4223 12.0167 14.9205Z" fill="white"/>
<path d="M19.8205 13.8938C19.7611 13.7536 19.6709 13.6286 19.5566 13.528C19.4423 13.4274 19.3068 13.3539 19.1602 13.3128C18.8671 13.2329 18.5605 13.216 18.2604 13.2633C17.9604 13.3105 17.6738 13.4209 17.4195 13.587C17.1659 13.8428 17.0021 14.174 16.9528 14.5308C16.9528 14.6557 16.9528 14.679 17.101 14.679H19.866C20.0025 14.679 20.0025 14.679 19.9908 14.5075C19.9775 14.2931 19.9202 14.084 19.8205 13.8938ZM19.8205 13.8938C19.7611 13.7536 19.6698 13.6286 19.5554 13.528C19.4411 13.4274 19.3068 13.3539 19.1602 13.3128C18.8671 13.2329 18.5593 13.216 18.2593 13.2633C17.9592 13.3105 17.6738 13.4209 17.4195 13.587C17.1659 13.8428 17.0009 14.174 16.9517 14.5308C16.9517 14.6557 16.9517 14.679 17.0998 14.679H19.866C20.0025 14.679 20.0025 14.679 19.9908 14.5075C19.9775 14.2931 19.9179 14.084 19.8182 13.8938M21.1167 2.91666H7.46666C6.25992 2.91666 5.10261 3.39603 4.24932 4.24932C3.39603 5.10261 2.91666 6.25992 2.91666 7.46666V21.1167C2.91666 22.3234 3.39603 23.4807 4.24932 24.334C5.10261 25.1873 6.25992 25.6667 7.46666 25.6667H21.1167C22.3234 25.6667 23.4807 25.1873 24.334 24.334C25.1873 23.4807 25.6667 22.3234 25.6667 21.1167V7.46666C25.6667 6.25992 25.1873 5.10261 24.334 4.24932C23.4807 3.39603 22.3234 2.91666 21.1167 2.91666ZM16.6577 10.1617C16.6577 10.0718 16.6577 10.0368 16.7603 10.0368H20.4458V10.9935C20.4458 10.9935 20.4493 11.0612 20.3887 11.0612H16.8175C16.6577 11.0612 16.6577 11.0612 16.6577 10.9025V10.1617ZM13.2452 18.5232C11.8452 19.285 9.49199 18.9782 6.70482 18.9782V9.54799H11.1522C12.2897 9.54799 13.643 9.83266 14.007 11.0378C14.196 11.5642 14.1845 12.1418 13.9747 12.6602C13.7648 13.1786 13.3714 13.6016 12.8695 13.8483C13.3321 14.0195 13.736 14.3197 14.0334 14.7133C14.3308 15.1069 14.5092 15.5774 14.5475 16.0693C14.5858 16.5611 14.4824 17.0536 14.2495 17.4885C14.0166 17.9233 13.6641 18.2824 13.2335 18.5232H13.2452ZM21.7198 15.8387H17.1698C17.045 15.8387 16.9307 15.9063 16.9528 16.0662C17.0893 16.737 17.3962 17.4428 18.0915 17.5455C18.4587 17.6541 18.8516 17.637 19.208 17.4969C19.5643 17.3568 19.8637 17.1016 20.0585 16.772C20.0585 16.772 20.1157 16.7032 20.1495 16.7032H21.6288C21.6288 16.7032 21.7198 16.7032 21.6965 16.7825C21.5416 17.2247 21.3106 17.6365 21.014 17.9993C20.6185 18.3768 20.1414 18.658 19.6197 18.8213C19.0979 18.9846 18.5456 19.0255 18.0055 18.9409C17.4654 18.8563 16.9521 18.6484 16.5053 18.3334C16.0585 18.0183 15.6903 17.6046 15.4292 17.1243C15.2678 16.8043 15.1677 16.4568 15.134 16.1C14.9311 15.2035 15.0862 14.2632 15.5662 13.4794C16.0463 12.6956 16.8134 12.1301 17.7042 11.9035C20.286 11.3458 21.924 13.1203 21.924 15.6228C21.9278 15.6521 21.9249 15.6818 21.9154 15.7097C21.9059 15.7377 21.8901 15.763 21.8692 15.7839C21.8484 15.8048 21.823 15.8205 21.7951 15.83C21.7671 15.8395 21.7374 15.8425 21.7082 15.8387H21.7198ZM19.1718 13.3128C18.8788 13.2332 18.5723 13.2165 18.2723 13.2638C17.9725 13.3105 17.7042 13.3677 17.4312 13.587C17.1582 13.8052 17.0135 14.1738 16.9645 14.5308C16.9645 14.6557 16.9645 14.679 17.1127 14.679H19.866C20.0025 14.679 20.0025 14.679 19.9908 14.5075C19.9775 14.2931 19.9202 14.084 19.8205 13.8938C19.7611 13.7536 19.6709 13.6286 19.5566 13.528C19.4423 13.4274 19.3068 13.3539 19.1602 13.3128H19.1718Z" fill="white"/>
</svg>
