<svg width="28" height="28" viewBox="0 0 28 28" fill="none" xmlns="http://www.w3.org/2000/svg">
<path d="M15.1993 2.33334C16.5118 2.33684 17.178 2.34384 17.7532 2.36018L17.9795 2.36834C18.2408 2.37768 18.4987 2.38934 18.8102 2.40334C20.0515 2.46168 20.8985 2.65768 21.6417 2.94584C22.4117 3.24218 23.0603 3.64351 23.709 4.29101C24.3023 4.87422 24.7613 5.5797 25.0542 6.35834C25.3423 7.10151 25.5383 7.94851 25.5967 9.19101C25.6107 9.50134 25.6223 9.75918 25.6317 10.0217L25.6387 10.248C25.6562 10.822 25.6632 11.4882 25.6655 12.8007L25.6667 13.671V15.1993C25.6695 16.0503 25.6606 16.9013 25.6398 17.752L25.6328 17.9783C25.6235 18.2408 25.6118 18.4987 25.5978 18.809C25.5395 20.0515 25.3412 20.8973 25.0542 21.6417C24.7621 22.4207 24.303 23.1264 23.709 23.709C23.1256 24.302 22.4202 24.7611 21.6417 25.0542C20.8985 25.3423 20.0515 25.5383 18.8102 25.5967C18.5333 25.6097 18.2565 25.6214 17.9795 25.6317L17.7532 25.6387C17.178 25.655 16.5118 25.6632 15.1993 25.6655L14.329 25.6667H12.8018C11.9505 25.6696 11.0991 25.6607 10.248 25.6398L10.0217 25.6328C9.74472 25.6224 9.46783 25.6103 9.19101 25.5967C7.94968 25.5383 7.10268 25.3423 6.35834 25.0542C5.57979 24.7618 4.8746 24.3027 4.29218 23.709C3.6984 23.126 3.23894 22.4205 2.94585 21.6417C2.65768 20.8985 2.46168 20.0515 2.40335 18.809C2.39035 18.5322 2.37868 18.2553 2.36835 17.9783L2.36251 17.752C2.34101 16.9013 2.33129 16.0503 2.33335 15.1993V12.8007C2.33009 11.9497 2.33865 11.0987 2.35901 10.248L2.36718 10.0217C2.37651 9.75918 2.38818 9.50134 2.40218 9.19101C2.46051 7.94851 2.65651 7.10268 2.94468 6.35834C3.23764 5.5789 3.69802 4.8732 4.29335 4.29101C4.87562 3.69773 5.58035 3.23866 6.35834 2.94584C7.10268 2.65768 7.94851 2.46168 9.19101 2.40334C9.50134 2.38934 9.76035 2.37768 10.0217 2.36834L10.248 2.36134C11.0987 2.34061 11.9497 2.33167 12.8007 2.33451L15.1993 2.33334ZM14 8.16668C12.4529 8.16668 10.9692 8.78126 9.87522 9.87522C8.78126 10.9692 8.16668 12.4529 8.16668 14C8.16668 15.5471 8.78126 17.0308 9.87522 18.1248C10.9692 19.2188 12.4529 19.8333 14 19.8333C15.5471 19.8333 17.0308 19.2188 18.1248 18.1248C19.2188 17.0308 19.8333 15.5471 19.8333 14C19.8333 12.4529 19.2188 10.9692 18.1248 9.87522C17.0308 8.78126 15.5471 8.16668 14 8.16668ZM14 10.5C14.4596 10.4999 14.9148 10.5904 15.3394 10.7662C15.7641 10.942 16.15 11.1998 16.4751 11.5247C16.8001 11.8497 17.058 12.2355 17.2339 12.6601C17.4099 13.0847 17.5005 13.5398 17.5006 13.9994C17.5007 14.4591 17.4102 14.9142 17.2344 15.3389C17.0586 15.7635 16.8008 16.1494 16.4759 16.4745C16.1509 16.7995 15.7651 17.0574 15.3405 17.2334C14.9159 17.4093 14.4608 17.4999 14.0012 17.5C13.0729 17.5 12.1827 17.1313 11.5263 16.4749C10.8699 15.8185 10.5012 14.9283 10.5012 14C10.5012 13.0718 10.8699 12.1815 11.5263 11.5251C12.1827 10.8688 13.0729 10.5 14.0012 10.5M20.1262 6.41668C19.7394 6.41668 19.3685 6.57032 19.095 6.84381C18.8215 7.1173 18.6678 7.48824 18.6678 7.87501C18.6678 8.26178 18.8215 8.63272 19.095 8.90621C19.3685 9.1797 19.7394 9.33334 20.1262 9.33334C20.513 9.33334 20.8839 9.1797 21.1574 8.90621C21.4309 8.63272 21.5845 8.26178 21.5845 7.87501C21.5845 7.48824 21.4309 7.1173 21.1574 6.84381C20.8839 6.57032 20.513 6.41668 20.1262 6.41668Z" fill="white"/>
</svg>
