<svg width="71" height="25" viewBox="0 0 71 25" fill="none" xmlns="http://www.w3.org/2000/svg">
<path d="M3 25H0V1H5.26562L27.2656 22V1H30.2656V25H26.2656L3 3.5V25ZM35.2812 22C35.2812 21.375 35.2969 20.7552 35.3281 20.1406C35.3594 19.5156 35.4271 18.9219 35.5312 18.3594C35.6458 17.7865 35.8073 17.25 36.0156 16.75C36.2344 16.25 36.526 15.8125 36.8906 15.4375C37.2656 15.0521 37.7292 14.7344 38.2812 14.4844C38.8333 14.2344 39.5 14.0729 40.2812 14L56.2812 12.5C56.7812 12.4583 57.2188 12.3854 57.5938 12.2812C57.9688 12.1771 58.276 11.9792 58.5156 11.6875C58.7656 11.3854 58.9531 10.9479 59.0781 10.375C59.2031 9.80208 59.2656 9.01562 59.2656 8.01562C59.2656 7.18229 59.2031 6.47917 59.0781 5.90625C58.9531 5.33333 58.7448 4.85938 58.4531 4.48438C58.1615 4.10938 57.7656 3.82292 57.2656 3.625C56.776 3.42708 56.1615 3.28125 55.4219 3.1875C54.6823 3.09375 53.8073 3.04167 52.7969 3.03125C51.7865 3.01042 50.6146 3 49.2812 3C47.4479 3 45.901 3.03646 44.6406 3.10938C43.3906 3.17188 42.3542 3.29167 41.5312 3.46875C40.7188 3.64583 40.0938 3.88542 39.6562 4.1875C39.2188 4.48958 38.8958 4.88542 38.6875 5.375C38.4896 5.85417 38.3698 6.43229 38.3281 7.10938C38.2969 7.78646 38.2812 8.58333 38.2812 9.5H35.2812C35.2812 8 35.4167 6.73958 35.6875 5.71875C35.9688 4.6875 36.375 3.83854 36.9062 3.17188C37.4479 2.50521 38.1146 1.98958 38.9062 1.625C39.6979 1.26042 40.6094 0.994792 41.6406 0.828125C42.6823 0.661458 43.8385 0.567708 45.1094 0.546875C46.3906 0.515625 47.7812 0.5 49.2812 0.5C50.7812 0.5 52.1406 0.526042 53.3594 0.578125C54.5885 0.619792 55.6823 0.723958 56.6406 0.890625C57.6094 1.05729 58.4479 1.30208 59.1562 1.625C59.8646 1.94792 60.4479 2.39062 60.9062 2.95312C61.375 3.50521 61.7188 4.19271 61.9375 5.01562C62.1667 5.83854 62.2812 6.83333 62.2812 8C62.2812 9 62.2083 9.91146 62.0625 10.7344C61.9167 11.5469 61.6562 12.2552 61.2812 12.8594C60.9062 13.4635 60.3958 13.9479 59.75 14.3125C59.1042 14.6771 58.2812 14.9062 57.2812 15L41.2812 16.5C40.5208 16.5729 39.9375 16.7135 39.5312 16.9219C39.125 17.1302 38.8281 17.4635 38.6406 17.9219C38.4531 18.3698 38.3438 18.9635 38.3125 19.7031C38.2917 20.4427 38.2812 21.375 38.2812 22.5H61.7812V25H35.2812V22ZM67.2812 1H70.2812V25H67.2812V1Z" fill="white"/>
</svg>
