<svg width="526" height="167" viewBox="0 0 526 167" fill="none" xmlns="http://www.w3.org/2000/svg">
<path d="M19.136 91C13.6747 91 9.74933 92.1947 7.36 94.584C5.01333 96.9733 3.84 100.429 3.84 104.952V135.8H12.864V104.952C12.864 102.605 13.376 100.856 14.4 99.704C15.424 98.5947 17.0027 98.04 19.136 98.04H33.472V91H19.136ZM64.8865 100.28C64.8865 99.128 65.0998 98.1893 65.5265 97.464C65.9958 96.7387 66.8065 95.9493 67.9585 95.096L62.3905 90.232C59.9585 91.4693 58.2945 93.0267 57.3985 94.904C56.4598 93.5813 55.1798 92.472 53.5585 91.576C51.9372 90.68 49.9318 90.232 47.5425 90.232C44.5132 90.232 42.1025 91 40.3105 92.536C38.5185 94.1147 37.6225 96.3333 37.6225 99.192C37.6225 101.752 38.2838 103.715 39.6065 105.08C40.9718 106.488 42.5292 107.448 44.2785 107.96C46.0278 108.472 47.9692 108.835 50.1025 109.048L53.1745 109.368C54.4118 109.496 55.2652 109.709 55.7345 110.008C56.2465 110.307 56.5238 110.797 56.5665 111.48C56.4812 112.76 56.0545 113.848 55.2865 114.744C54.5612 115.64 53.1532 116.088 51.0625 116.088C49.6972 116.088 48.5025 115.832 47.4785 115.32C46.4545 114.808 45.4092 113.976 44.3425 112.824L38.6465 116.792C39.8838 118.413 41.4412 119.651 43.3185 120.504C45.1958 121.4 47.7772 121.848 51.0625 121.848C60.2785 121.848 64.8865 118.115 64.8865 110.648V100.28ZM49.6545 96.184C51.8732 96.184 53.5798 96.7173 54.7745 97.784C55.9692 98.8933 56.5665 100.237 56.5665 101.816V104.504C55.8838 104.248 54.5825 104.013 52.6625 103.8L50.7425 103.608C49.2918 103.48 48.0758 103.139 47.0945 102.584C46.1132 102.072 45.6225 101.091 45.6225 99.64C45.6225 98.5307 45.9852 97.6773 46.7105 97.08C47.4358 96.4827 48.4172 96.184 49.6545 96.184ZM109.272 90.232C105.261 90.232 102.168 91.4693 99.992 93.944V91H91.672V128.952C91.672 130.104 91.4373 131.043 90.968 131.768C90.5413 132.493 89.752 133.283 88.6 134.136L94.168 139C96.344 137.891 97.8587 136.611 98.712 135.16C99.5653 133.752 99.992 131.768 99.992 129.208V117.944C102.211 120.547 105.304 121.848 109.272 121.848C112.088 121.848 114.477 121.165 116.44 119.8C118.445 118.477 119.939 116.685 120.92 114.424C121.901 112.205 122.392 109.752 122.392 107.064V105.016C122.392 102.328 121.901 99.8533 120.92 97.592C119.939 95.3733 118.445 93.5813 116.44 92.216C114.477 90.8933 112.088 90.232 109.272 90.232ZM106.84 96.632C109.187 96.632 110.979 97.4427 112.216 99.064C113.453 100.685 114.072 102.669 114.072 105.016V107.064C114.072 109.411 113.453 111.395 112.216 113.016C110.979 114.637 109.187 115.448 106.84 115.448C103.256 115.448 100.973 113.699 99.992 110.2V101.88C100.973 98.3813 103.256 96.632 106.84 96.632ZM153.824 100.28C153.824 99.128 154.037 98.1893 154.464 97.464C154.933 96.7387 155.744 95.9493 156.896 95.096L151.328 90.232C148.896 91.4693 147.232 93.0267 146.336 94.904C145.397 93.5813 144.117 92.472 142.496 91.576C140.875 90.68 138.869 90.232 136.48 90.232C133.451 90.232 131.04 91 129.248 92.536C127.456 94.1147 126.56 96.3333 126.56 99.192C126.56 101.752 127.221 103.715 128.544 105.08C129.909 106.488 131.467 107.448 133.216 107.96C134.965 108.472 136.907 108.835 139.04 109.048L142.112 109.368C143.349 109.496 144.203 109.709 144.672 110.008C145.184 110.307 145.461 110.797 145.504 111.48C145.419 112.76 144.992 113.848 144.224 114.744C143.499 115.64 142.091 116.088 140 116.088C138.635 116.088 137.44 115.832 136.416 115.32C135.392 114.808 134.347 113.976 133.28 112.824L127.584 116.792C128.821 118.413 130.379 119.651 132.256 120.504C134.133 121.4 136.715 121.848 140 121.848C149.216 121.848 153.824 118.115 153.824 110.648V100.28ZM138.592 96.184C140.811 96.184 142.517 96.7173 143.712 97.784C144.907 98.8933 145.504 100.237 145.504 101.816V104.504C144.821 104.248 143.52 104.013 141.6 103.8L139.68 103.608C138.229 103.48 137.013 103.139 136.032 102.584C135.051 102.072 134.56 101.091 134.56 99.64C134.56 98.5307 134.923 97.6773 135.648 97.08C136.373 96.4827 137.355 96.184 138.592 96.184ZM167.246 90.232C165.07 91.3413 163.555 92.6 162.702 94.008C161.849 95.4587 161.422 97.464 161.422 100.024V128.952C161.422 130.104 161.187 131.043 160.718 131.768C160.291 132.493 159.502 133.283 158.35 134.136L163.918 139C166.094 137.891 167.609 136.611 168.462 135.16C169.315 133.752 169.742 131.768 169.742 129.208V100.28C169.742 99.128 169.955 98.1893 170.382 97.464C170.851 96.7387 171.662 95.9493 172.814 95.096L167.246 90.232ZM184.621 90.232C182.445 91.3413 180.93 92.6 180.077 94.008C179.224 95.4587 178.797 97.464 178.797 100.024V128.952C178.797 130.104 178.562 131.043 178.093 131.768C177.666 132.493 176.877 133.283 175.725 134.136L181.293 139C183.469 137.891 184.984 136.611 185.837 135.16C186.69 133.752 187.117 131.768 187.117 129.208V100.28C187.117 99.128 187.33 98.1893 187.757 97.464C188.226 96.7387 189.037 95.9493 190.189 95.096L184.621 90.232ZM208.581 96.504C210.159 96.504 211.439 96.696 212.421 97.08C213.402 97.5067 214.469 98.232 215.621 99.256L220.549 94.776C218.074 91.7467 214.085 90.232 208.581 90.232C203.674 90.232 200.133 91.1493 197.957 92.984C195.781 94.8613 194.693 97.8907 194.693 102.072V111.224C194.693 114.509 195.866 117.091 198.213 118.968C200.602 120.888 203.845 121.848 207.941 121.848C212.165 121.848 215.471 120.824 217.861 118.776C220.25 116.771 221.445 113.827 221.445 109.944C221.445 108.067 221.274 106.616 220.933 105.592C220.634 104.568 220.015 103.8 219.077 103.288C218.138 102.819 216.773 102.584 214.981 102.584H202.949V102.008C202.949 98.3387 204.826 96.504 208.581 96.504ZM207.941 115.576C206.362 115.576 205.125 115.107 204.229 114.168C203.375 113.272 202.949 112.077 202.949 110.584V108.28H210.245C211.354 108.28 212.122 108.451 212.549 108.792C212.975 109.133 213.189 109.731 213.189 110.584C213.189 112.205 212.741 113.443 211.845 114.296C210.949 115.149 209.647 115.576 207.941 115.576ZM244.119 121.848C246.337 121.848 248.215 121.251 249.751 120.056L247.703 113.144C246.807 113.741 245.953 114.168 245.143 114.424C244.332 114.68 243.329 114.808 242.135 114.808C239.319 114.808 237.292 112.931 236.055 109.176V91H227.735V111.8C227.735 112.952 227.5 113.891 227.031 114.616C226.604 115.341 225.815 116.131 224.663 116.984L230.231 121.848C231.681 121.08 232.833 120.269 233.687 119.416C234.54 118.563 235.159 117.539 235.543 116.344C236.396 118.008 237.527 119.331 238.935 120.312C240.343 121.336 242.071 121.848 244.119 121.848ZM258.518 125.112C257.195 125.112 256.065 125.581 255.126 126.52C254.187 127.459 253.718 128.589 253.718 129.912C253.718 131.192 254.187 132.301 255.126 133.24C256.065 134.221 257.195 134.712 258.518 134.712C259.798 134.712 260.907 134.221 261.846 133.24C262.827 132.301 263.318 131.192 263.318 129.912C263.318 128.589 262.827 127.459 261.846 126.52C260.907 125.581 259.798 125.112 258.518 125.112ZM260.182 90.232C258.006 91.3413 256.491 92.6 255.638 94.008C254.785 95.4587 254.358 97.464 254.358 100.024V121.08H262.678V100.28C262.678 99.128 262.891 98.1893 263.318 97.464C263.787 96.7387 264.598 95.9493 265.75 95.096L260.182 90.232ZM288.879 121.848C292.164 121.848 294.682 120.952 296.431 119.16C298.223 117.368 299.119 114.808 299.119 111.48V91H290.799V110.712C290.799 112.163 290.394 113.315 289.583 114.168C288.815 115.021 287.77 115.448 286.447 115.448C283.631 115.448 281.604 113.784 280.367 110.456V91H272.047V111.8C272.047 112.952 271.812 113.891 271.343 114.616C270.916 115.341 270.127 116.131 268.975 116.984L274.543 121.848C275.908 121.165 276.975 120.44 277.743 119.672C278.554 118.904 279.172 118.008 279.599 116.984C280.495 118.435 281.69 119.608 283.183 120.504C284.719 121.4 286.618 121.848 288.879 121.848ZM319.706 96.504C321.284 96.504 322.564 96.696 323.546 97.08C324.527 97.5067 325.594 98.232 326.746 99.256L331.674 94.776C329.199 91.7467 325.21 90.232 319.706 90.232C314.799 90.232 311.258 91.1493 309.082 92.984C306.906 94.8613 305.818 97.8907 305.818 102.072V111.224C305.818 114.509 306.991 117.091 309.338 118.968C311.727 120.888 314.97 121.848 319.066 121.848C323.29 121.848 326.596 120.824 328.986 118.776C331.375 116.771 332.57 113.827 332.57 109.944C332.57 108.067 332.399 106.616 332.058 105.592C331.759 104.568 331.14 103.8 330.202 103.288C329.263 102.819 327.898 102.584 326.106 102.584H314.074V102.008C314.074 98.3387 315.951 96.504 319.706 96.504ZM319.066 115.576C317.487 115.576 316.25 115.107 315.354 114.168C314.5 113.272 314.074 112.077 314.074 110.584V108.28H321.37C322.479 108.28 323.247 108.451 323.674 108.792C324.1 109.133 324.314 109.731 324.314 110.584C324.314 112.205 323.866 113.443 322.97 114.296C322.074 115.149 320.772 115.576 319.066 115.576ZM357.878 135.8H362.55C364.896 135.8 366.774 135.48 368.182 134.84C369.59 134.2 370.806 133.176 371.83 131.768C372.854 130.403 374.048 128.333 375.414 125.56L379.126 118.072L382.838 125.56C384.203 128.333 385.398 130.403 386.422 131.768C387.446 133.176 388.662 134.2 390.069 134.84C391.478 135.48 393.355 135.8 395.702 135.8H400.374V91H392.182V126.392C391.67 126.392 391.243 126.157 390.902 125.688C390.56 125.219 390.048 124.387 389.366 123.192L379.126 104.184L368.885 123.192C368.203 124.387 367.691 125.219 367.35 125.688C367.008 126.157 366.582 126.413 366.07 126.456V91H357.878V135.8ZM414.581 125.112C413.258 125.112 412.127 125.581 411.189 126.52C410.25 127.459 409.781 128.589 409.781 129.912C409.781 131.192 410.25 132.301 411.189 133.24C412.127 134.221 413.258 134.712 414.581 134.712C415.861 134.712 416.97 134.221 417.909 133.24C418.89 132.301 419.381 131.192 419.381 129.912C419.381 128.589 418.89 127.459 417.909 126.52C416.97 125.581 415.861 125.112 414.581 125.112ZM416.245 90.232C414.069 91.3413 412.554 92.6 411.701 94.008C410.847 95.4587 410.421 97.464 410.421 100.024V121.08H418.741V100.28C418.741 99.128 418.954 98.1893 419.381 97.464C419.85 96.7387 420.661 95.9493 421.812 95.096L416.245 90.232ZM444.358 91L438.214 100.344L432.454 91H424.07L433.926 106.808L424.518 121.08H432.838L438.726 112.184L444.23 121.08H452.55L443.014 105.656L452.742 91H444.358ZM465.11 114.68V102.264C465.11 100.472 465.387 99.2133 465.942 98.488C466.496 97.7627 467.435 97.4 468.758 97.4H473.814V91H468.758C465.771 91 463.403 91.3627 461.654 92.088C459.947 92.8133 458.71 93.9867 457.942 95.608C457.174 97.2293 456.79 99.448 456.79 102.264V125.752C456.79 126.904 456.555 127.843 456.086 128.568C455.659 129.293 454.87 130.083 453.718 130.936L459.286 135.8C461.462 134.691 462.976 133.411 463.83 131.96C464.683 130.552 465.11 128.568 465.11 126.008V121.08H473.814V114.68H465.11ZM492.206 96.504C493.784 96.504 495.064 96.696 496.046 97.08C497.027 97.5067 498.094 98.232 499.246 99.256L504.174 94.776C501.699 91.7467 497.71 90.232 492.206 90.232C487.299 90.232 483.758 91.1493 481.582 92.984C479.406 94.8613 478.318 97.8907 478.318 102.072V111.224C478.318 114.509 479.491 117.091 481.838 118.968C484.227 120.888 487.47 121.848 491.566 121.848C495.79 121.848 499.096 120.824 501.486 118.776C503.875 116.771 505.07 113.827 505.07 109.944C505.07 108.067 504.899 106.616 504.558 105.592C504.259 104.568 503.64 103.8 502.702 103.288C501.763 102.819 500.398 102.584 498.606 102.584H486.574V102.008C486.574 98.3387 488.451 96.504 492.206 96.504ZM491.566 115.576C489.987 115.576 488.75 115.107 487.854 114.168C487 113.272 486.574 112.077 486.574 110.584V108.28H493.87C494.979 108.28 495.747 108.451 496.174 108.792C496.6 109.133 496.814 109.731 496.814 110.584C496.814 112.205 496.366 113.443 495.47 114.296C494.574 115.149 493.272 115.576 491.566 115.576Z" fill="#62759F" fill-opacity="0.7"/>
<path d="M19.136 76C13.6747 76 9.74933 74.8053 7.36 72.416C5.01333 70.0267 3.84 66.5707 3.84 62.048V31.2H12.864V62.048C12.864 64.3947 13.376 66.144 14.4 67.296C15.424 68.4053 17.0027 68.96 19.136 68.96H33.472V76H19.136ZM64.8865 66.72C64.8865 67.872 65.0998 68.8107 65.5265 69.536C65.9958 70.2613 66.8065 71.0507 67.9585 71.904L62.3905 76.768C59.9585 75.5307 58.2945 73.9733 57.3985 72.096C56.4598 73.4187 55.1798 74.528 53.5585 75.424C51.9372 76.32 49.9318 76.768 47.5425 76.768C44.5132 76.768 42.1025 76 40.3105 74.464C38.5185 72.8853 37.6225 70.6667 37.6225 67.808C37.6225 65.248 38.2838 63.2853 39.6065 61.92C40.9718 60.512 42.5292 59.552 44.2785 59.04C46.0278 58.528 47.9692 58.1653 50.1025 57.952L53.1745 57.632C54.4118 57.504 55.2652 57.2907 55.7345 56.992C56.2465 56.6933 56.5238 56.2027 56.5665 55.52C56.4812 54.24 56.0545 53.152 55.2865 52.256C54.5612 51.36 53.1532 50.912 51.0625 50.912C49.6972 50.912 48.5025 51.168 47.4785 51.68C46.4545 52.192 45.4092 53.024 44.3425 54.176L38.6465 50.208C39.8838 48.5867 41.4412 47.3493 43.3185 46.496C45.1958 45.6 47.7772 45.152 51.0625 45.152C60.2785 45.152 64.8865 48.8853 64.8865 56.352V66.72ZM49.6545 70.816C51.8732 70.816 53.5798 70.2827 54.7745 69.216C55.9692 68.1067 56.5665 66.7627 56.5665 65.184V62.496C55.8838 62.752 54.5825 62.9867 52.6625 63.2L50.7425 63.392C49.2918 63.52 48.0758 63.8613 47.0945 64.416C46.1132 64.928 45.6225 65.9093 45.6225 67.36C45.6225 68.4693 45.9852 69.3227 46.7105 69.92C47.4358 70.5173 48.4172 70.816 49.6545 70.816ZM109.272 76.768C105.261 76.768 102.168 75.5307 99.992 73.056V76H91.672V38.048C91.672 36.896 91.4373 35.9573 90.968 35.232C90.5413 34.5067 89.752 33.7173 88.6 32.864L94.168 28C96.344 29.1093 97.8587 30.3893 98.712 31.84C99.5653 33.248 99.992 35.232 99.992 37.792V49.056C102.211 46.4533 105.304 45.152 109.272 45.152C112.088 45.152 114.477 45.8347 116.44 47.2C118.445 48.5227 119.939 50.3147 120.92 52.576C121.901 54.7947 122.392 57.248 122.392 59.936V61.984C122.392 64.672 121.901 67.1467 120.92 69.408C119.939 71.6267 118.445 73.4187 116.44 74.784C114.477 76.1067 112.088 76.768 109.272 76.768ZM106.84 70.368C109.187 70.368 110.979 69.5573 112.216 67.936C113.453 66.3147 114.072 64.3307 114.072 61.984V59.936C114.072 57.5893 113.453 55.6053 112.216 53.984C110.979 52.3627 109.187 51.552 106.84 51.552C103.256 51.552 100.973 53.3013 99.992 56.8V65.12C100.973 68.6187 103.256 70.368 106.84 70.368ZM153.824 66.72C153.824 67.872 154.037 68.8107 154.464 69.536C154.933 70.2613 155.744 71.0507 156.896 71.904L151.328 76.768C148.896 75.5307 147.232 73.9733 146.336 72.096C145.397 73.4187 144.117 74.528 142.496 75.424C140.875 76.32 138.869 76.768 136.48 76.768C133.451 76.768 131.04 76 129.248 74.464C127.456 72.8853 126.56 70.6667 126.56 67.808C126.56 65.248 127.221 63.2853 128.544 61.92C129.909 60.512 131.467 59.552 133.216 59.04C134.965 58.528 136.907 58.1653 139.04 57.952L142.112 57.632C143.349 57.504 144.203 57.2907 144.672 56.992C145.184 56.6933 145.461 56.2027 145.504 55.52C145.419 54.24 144.992 53.152 144.224 52.256C143.499 51.36 142.091 50.912 140 50.912C138.635 50.912 137.44 51.168 136.416 51.68C135.392 52.192 134.347 53.024 133.28 54.176L127.584 50.208C128.821 48.5867 130.379 47.3493 132.256 46.496C134.133 45.6 136.715 45.152 140 45.152C149.216 45.152 153.824 48.8853 153.824 56.352V66.72ZM138.592 70.816C140.811 70.816 142.517 70.2827 143.712 69.216C144.907 68.1067 145.504 66.7627 145.504 65.184V62.496C144.821 62.752 143.52 62.9867 141.6 63.2L139.68 63.392C138.229 63.52 137.013 63.8613 136.032 64.416C135.051 64.928 134.56 65.9093 134.56 67.36C134.56 68.4693 134.923 69.3227 135.648 69.92C136.373 70.5173 137.355 70.816 138.592 70.816ZM167.246 76.768C165.07 75.6587 163.555 74.4 162.702 72.992C161.849 71.5413 161.422 69.536 161.422 66.976V38.048C161.422 36.896 161.187 35.9573 160.718 35.232C160.291 34.5067 159.502 33.7173 158.35 32.864L163.918 28C166.094 29.1093 167.609 30.3893 168.462 31.84C169.315 33.248 169.742 35.232 169.742 37.792V66.72C169.742 67.872 169.955 68.8107 170.382 69.536C170.851 70.2613 171.662 71.0507 172.814 71.904L167.246 76.768ZM184.621 76.768C182.445 75.6587 180.93 74.4 180.077 72.992C179.224 71.5413 178.797 69.536 178.797 66.976V38.048C178.797 36.896 178.562 35.9573 178.093 35.232C177.666 34.5067 176.877 33.7173 175.725 32.864L181.293 28C183.469 29.1093 184.984 30.3893 185.837 31.84C186.69 33.248 187.117 35.232 187.117 37.792V66.72C187.117 67.872 187.33 68.8107 187.757 69.536C188.226 70.2613 189.037 71.0507 190.189 71.904L184.621 76.768ZM208.581 70.496C210.159 70.496 211.439 70.304 212.421 69.92C213.402 69.4933 214.469 68.768 215.621 67.744L220.549 72.224C218.074 75.2533 214.085 76.768 208.581 76.768C203.674 76.768 200.133 75.8507 197.957 74.016C195.781 72.1387 194.693 69.1093 194.693 64.928V55.776C194.693 52.4907 195.866 49.9093 198.213 48.032C200.602 46.112 203.845 45.152 207.941 45.152C212.165 45.152 215.471 46.176 217.861 48.224C220.25 50.2293 221.445 53.1733 221.445 57.056C221.445 58.9333 221.274 60.384 220.933 61.408C220.634 62.432 220.015 63.2 219.077 63.712C218.138 64.1813 216.773 64.416 214.981 64.416H202.949V64.992C202.949 68.6613 204.826 70.496 208.581 70.496ZM207.941 51.424C206.362 51.424 205.125 51.8933 204.229 52.832C203.375 53.728 202.949 54.9227 202.949 56.416V58.72H210.245C211.354 58.72 212.122 58.5493 212.549 58.208C212.975 57.8667 213.189 57.2693 213.189 56.416C213.189 54.7947 212.741 53.5573 211.845 52.704C210.949 51.8507 209.647 51.424 207.941 51.424ZM244.119 45.152C246.337 45.152 248.215 45.7493 249.751 46.944L247.703 53.856C246.807 53.2587 245.953 52.832 245.143 52.576C244.332 52.32 243.329 52.192 242.135 52.192C239.319 52.192 237.292 54.0693 236.055 57.824V76H227.735V55.2C227.735 54.048 227.5 53.1093 227.031 52.384C226.604 51.6587 225.815 50.8693 224.663 50.016L230.231 45.152C231.681 45.92 232.833 46.7307 233.687 47.584C234.54 48.4373 235.159 49.4613 235.543 50.656C236.396 48.992 237.527 47.6693 238.935 46.688C240.343 45.664 242.071 45.152 244.119 45.152ZM258.518 41.888C257.195 41.888 256.065 41.4187 255.126 40.48C254.187 39.5413 253.718 38.4107 253.718 37.088C253.718 35.808 254.187 34.6987 255.126 33.76C256.065 32.7787 257.195 32.288 258.518 32.288C259.798 32.288 260.907 32.7787 261.846 33.76C262.827 34.6987 263.318 35.808 263.318 37.088C263.318 38.4107 262.827 39.5413 261.846 40.48C260.907 41.4187 259.798 41.888 258.518 41.888ZM260.182 76.768C258.006 75.6587 256.491 74.4 255.638 72.992C254.785 71.5413 254.358 69.536 254.358 66.976V45.92H262.678V66.72C262.678 67.872 262.891 68.8107 263.318 69.536C263.787 70.2613 264.598 71.0507 265.75 71.904L260.182 76.768ZM288.879 45.152C292.164 45.152 294.682 46.048 296.431 47.84C298.223 49.632 299.119 52.192 299.119 55.52V76H290.799V56.288C290.799 54.8373 290.394 53.6853 289.583 52.832C288.815 51.9787 287.77 51.552 286.447 51.552C283.631 51.552 281.604 53.216 280.367 56.544V76H272.047V55.2C272.047 54.048 271.812 53.1093 271.343 52.384C270.916 51.6587 270.127 50.8693 268.975 50.016L274.543 45.152C275.908 45.8347 276.975 46.56 277.743 47.328C278.554 48.096 279.172 48.992 279.599 50.016C280.495 48.5653 281.69 47.392 283.183 46.496C284.719 45.6 286.618 45.152 288.879 45.152ZM319.706 70.496C321.284 70.496 322.564 70.304 323.546 69.92C324.527 69.4933 325.594 68.768 326.746 67.744L331.674 72.224C329.199 75.2533 325.21 76.768 319.706 76.768C314.799 76.768 311.258 75.8507 309.082 74.016C306.906 72.1387 305.818 69.1093 305.818 64.928V55.776C305.818 52.4907 306.991 49.9093 309.338 48.032C311.727 46.112 314.97 45.152 319.066 45.152C323.29 45.152 326.596 46.176 328.986 48.224C331.375 50.2293 332.57 53.1733 332.57 57.056C332.57 58.9333 332.399 60.384 332.058 61.408C331.759 62.432 331.14 63.2 330.202 63.712C329.263 64.1813 327.898 64.416 326.106 64.416H314.074V64.992C314.074 68.6613 315.951 70.496 319.706 70.496ZM319.066 51.424C317.487 51.424 316.25 51.8933 315.354 52.832C314.5 53.728 314.074 54.9227 314.074 56.416V58.72H321.37C322.479 58.72 323.247 58.5493 323.674 58.208C324.1 57.8667 324.314 57.2693 324.314 56.416C324.314 54.7947 323.866 53.5573 322.97 52.704C322.074 51.8507 320.772 51.424 319.066 51.424ZM357.878 31.2H362.55C364.896 31.2 366.774 31.52 368.182 32.16C369.59 32.8 370.806 33.824 371.83 35.232C372.854 36.5973 374.048 38.6667 375.414 41.44L379.126 48.928L382.838 41.44C384.203 38.6667 385.398 36.5973 386.422 35.232C387.446 33.824 388.662 32.8 390.069 32.16C391.478 31.52 393.355 31.2 395.702 31.2H400.374V76H392.182V40.608C391.67 40.608 391.243 40.8427 390.902 41.312C390.56 41.7813 390.048 42.6133 389.366 43.808L379.126 62.816L368.885 43.808C368.203 42.6133 367.691 41.7813 367.35 41.312C367.008 40.8427 366.582 40.5867 366.07 40.544V76H357.878V31.2ZM414.581 41.888C413.258 41.888 412.127 41.4187 411.189 40.48C410.25 39.5413 409.781 38.4107 409.781 37.088C409.781 35.808 410.25 34.6987 411.189 33.76C412.127 32.7787 413.258 32.288 414.581 32.288C415.861 32.288 416.97 32.7787 417.909 33.76C418.89 34.6987 419.381 35.808 419.381 37.088C419.381 38.4107 418.89 39.5413 417.909 40.48C416.97 41.4187 415.861 41.888 414.581 41.888ZM416.245 76.768C414.069 75.6587 412.554 74.4 411.701 72.992C410.847 71.5413 410.421 69.536 410.421 66.976V45.92H418.741V66.72C418.741 67.872 418.954 68.8107 419.381 69.536C419.85 70.2613 420.661 71.0507 421.812 71.904L416.245 76.768ZM444.358 76L438.214 66.656L432.454 76H424.07L433.926 60.192L424.518 45.92H432.838L438.726 54.816L444.23 45.92H452.55L443.014 61.344L452.742 76H444.358ZM465.11 52.32V64.736C465.11 66.528 465.387 67.7867 465.942 68.512C466.496 69.2373 467.435 69.6 468.758 69.6H473.814V76H468.758C465.771 76 463.403 75.6373 461.654 74.912C459.947 74.1867 458.71 73.0133 457.942 71.392C457.174 69.7707 456.79 67.552 456.79 64.736V41.248C456.79 40.096 456.555 39.1573 456.086 38.432C455.659 37.7067 454.87 36.9173 453.718 36.064L459.286 31.2C461.462 32.3093 462.976 33.5893 463.83 35.04C464.683 36.448 465.11 38.432 465.11 40.992V45.92H473.814V52.32H465.11ZM492.206 70.496C493.784 70.496 495.064 70.304 496.046 69.92C497.027 69.4933 498.094 68.768 499.246 67.744L504.174 72.224C501.699 75.2533 497.71 76.768 492.206 76.768C487.299 76.768 483.758 75.8507 481.582 74.016C479.406 72.1387 478.318 69.1093 478.318 64.928V55.776C478.318 52.4907 479.491 49.9093 481.838 48.032C484.227 46.112 487.47 45.152 491.566 45.152C495.79 45.152 499.096 46.176 501.486 48.224C503.875 50.2293 505.07 53.1733 505.07 57.056C505.07 58.9333 504.899 60.384 504.558 61.408C504.259 62.432 503.64 63.2 502.702 63.712C501.763 64.1813 500.398 64.416 498.606 64.416H486.574V64.992C486.574 68.6613 488.451 70.496 492.206 70.496ZM491.566 51.424C489.987 51.424 488.75 51.8933 487.854 52.832C487 53.728 486.574 54.9227 486.574 56.416V58.72H493.87C494.979 58.72 495.747 58.5493 496.174 58.208C496.6 57.8667 496.814 57.2693 496.814 56.416C496.814 54.7947 496.366 53.5573 495.47 52.704C494.574 51.8507 493.272 51.424 491.566 51.424Z" fill="#E0A26E"/>
</svg>
